###  /home/johan/detectDamagedAudio/data/frogs-01-byte-missing-at-offset-651202.flac
General
Complete name                            : /home/johan/detectDamagedAudio/data/frogs-01-byte-missing-at-offset-651202.flac
Format                                   : FLAC
Format/Info                              : Free Lossless Audio Codec
File size                                : 1.04 MiB
Duration                                 : 11s 626ms
Overall bit rate mode                    : Variable
Overall bit rate                         : 747 Kbps

Audio
Format                                   : FLAC
Format/Info                              : Free Lossless Audio Codec
Duration                                 : 11s 626ms
Bit rate mode                            : Variable
Bit rate                                 : 741 Kbps
Channel(s)                               : 2 channels
Channel positions                        : Front: L R
Sampling rate                            : 44.1 KHz
Bit depth                                : 16 bits
Stream size                              : 1.03 MiB (99%)
Writing library                          : libFLAC 1.3.1 (UTC 2014-11-25)


###  /home/johan/detectDamagedAudio/data/frogs-01.flac
General
Complete name                            : /home/johan/detectDamagedAudio/data/frogs-01.flac
Format                                   : FLAC
Format/Info                              : Free Lossless Audio Codec
File size                                : 1.04 MiB
Duration                                 : 11s 626ms
Overall bit rate mode                    : Variable
Overall bit rate                         : 747 Kbps

Audio
Format                                   : FLAC
Format/Info                              : Free Lossless Audio Codec
Duration                                 : 11s 626ms
Bit rate mode                            : Variable
Bit rate                                 : 741 Kbps
Channel(s)                               : 2 channels
Channel positions                        : Front: L R
Sampling rate                            : 44.1 KHz
Bit depth                                : 16 bits
Stream size                              : 1.03 MiB (99%)
Writing library                          : libFLAC 1.3.1 (UTC 2014-11-25)


###  /home/johan/detectDamagedAudio/data/frogs-01-last-1000-bytes-missing.flac
General
Complete name                            : /home/johan/detectDamagedAudio/data/frogs-01-last-1000-bytes-missing.flac
Format                                   : FLAC
Format/Info                              : Free Lossless Audio Codec
File size                                : 1.03 MiB
Duration                                 : 11s 626ms
Overall bit rate mode                    : Variable
Overall bit rate                         : 746 Kbps

Audio
Format                                   : FLAC
Format/Info                              : Free Lossless Audio Codec
Duration                                 : 11s 626ms
Bit rate mode                            : Variable
Bit rate                                 : 740 Kbps
Channel(s)                               : 2 channels
Channel positions                        : Front: L R
Sampling rate                            : 44.1 KHz
Bit depth                                : 16 bits
Stream size                              : 1.03 MiB (99%)
Writing library                          : libFLAC 1.3.1 (UTC 2014-11-25)


###  /home/johan/detectDamagedAudio/data/frogs-01-last-byte-missing.flac
General
Complete name                            : /home/johan/detectDamagedAudio/data/frogs-01-last-byte-missing.flac
Format                                   : FLAC
Format/Info                              : Free Lossless Audio Codec
File size                                : 1.04 MiB
Duration                                 : 11s 626ms
Overall bit rate mode                    : Variable
Overall bit rate                         : 747 Kbps

Audio
Format                                   : FLAC
Format/Info                              : Free Lossless Audio Codec
Duration                                 : 11s 626ms
Bit rate mode                            : Variable
Bit rate                                 : 741 Kbps
Channel(s)                               : 2 channels
Channel positions                        : Front: L R
Sampling rate                            : 44.1 KHz
Bit depth                                : 16 bits
Stream size                              : 1.03 MiB (99%)
Writing library                          : libFLAC 1.3.1 (UTC 2014-11-25)


